<svg width="50" height="51" viewBox="0 0 50 51" fill="none" xmlns="http://www.w3.org/2000/svg">
<path d="M24.7632 14.2886C27.6815 14.2886 30.3624 14.6426 32.3462 15.2378C33.3317 15.5335 34.2018 15.9054 34.8481 16.3638C35.4685 16.8038 36.0806 17.4721 36.0806 18.3843C36.0804 19.2963 35.4685 19.9648 34.8481 20.4048C34.2018 20.8631 33.3316 21.2351 32.3462 21.5308C30.3624 22.1259 27.6815 22.479 24.7632 22.479C21.8447 22.479 19.1631 22.1259 17.1792 21.5308C16.1938 21.2351 15.3235 20.8631 14.6772 20.4048C14.0956 19.9923 13.5212 19.3789 13.4517 18.5522L13.4448 18.3843L13.4517 18.2153C13.5213 17.3889 14.0958 16.7762 14.6772 16.3638C15.3235 15.9054 16.1938 15.5334 17.1792 15.2378C19.1631 14.6426 21.8447 14.2886 24.7632 14.2886Z" stroke="#CED3D8" stroke-width="2"/>
<path d="M47.463 18.3836V36.172C47.463 36.8558 47.1214 37.4934 46.5291 37.8352C38.82 42.284 20.9234 47.675 3.06847 37.8395C2.44541 37.4963 2.06396 36.8325 2.06396 36.1212V18.3836M47.463 18.3836C47.463 23.5122 37.3 27.6697 24.7635 27.6697C12.2269 27.6697 2.06396 23.5122 2.06396 18.3836M47.463 18.3836C47.463 13.255 37.3 9.09741 24.7635 9.09741C12.2269 9.09741 2.06396 13.255 2.06396 18.3836" stroke="#CED3D8" stroke-width="2" stroke-linecap="round" stroke-linejoin="round"/>
<path d="M7.22217 24.5744V39.6386M12.3811 26.638V41.0831M18.5719 27.6698V42.5276M24.7627 27.6698V43.1467M30.9535 27.6698V42.5276M37.1442 26.638V41.0831M43.335 23.9553V39.0195" stroke="#CED3D8" stroke-width="2" stroke-linecap="round" stroke-linejoin="round"/>
</svg>
