<svg width="50" height="50" viewBox="0 0 50 50" fill="none" xmlns="http://www.w3.org/2000/svg">
<path d="M26.0254 2.83545L26.1182 7.37451L26.1387 8.37451L25.1387 8.39502C20.7899 8.48421 16.643 10.2212 13.5312 13.2456L13.2334 13.5415C10.0912 16.7488 8.33116 21.0603 8.33105 25.5503V26.5503H1.79102V25.5503L1.79785 24.9702C1.94449 18.9788 4.35729 13.2567 8.56152 8.96533L8.97266 8.55518C13.2704 4.37802 18.9985 1.97906 25.0049 1.85596L26.0049 1.83545L26.0254 2.83545Z" stroke="#CED3D8" stroke-width="2"/>
<rect x="26.5229" y="26.5828" width="2.06359" height="2.06359" rx="1" fill="#CED3D8"/>
<circle cx="27.5541" cy="27.6144" r="7.19077" stroke="#CED3D8" stroke-width="2"/>
<path d="M32.068 41.3356C24.49 43.8286 16.3259 39.7063 13.833 32.1283C11.34 24.5503 15.4622 16.3862 23.0402 13.8932C30.6182 11.4003 38.7824 15.5225 41.2753 23.1005C43.7683 30.6785 39.646 38.8426 32.068 41.3356Z" stroke="#CED3D8" stroke-width="2" stroke-linecap="round" stroke-linejoin="round" stroke-dasharray="5 5"/>
</svg>
