<svg width="44" height="45" viewBox="0 0 44 45" fill="none" xmlns="http://www.w3.org/2000/svg">
<path d="M2.62556 38.0685H1.56481V43.1405H42.4854V38.0685H41.3428M2.62556 38.0685V12.7227M2.62556 38.0685H41.3428M2.62556 12.7227H1.87109C1.59495 12.7227 1.37109 12.4989 1.37109 12.2227V7.86747C1.37109 7.59133 1.59495 7.36747 1.87109 7.36747H4.49965M2.62556 12.7227H41.3428M41.3428 38.0685V12.7227M41.3428 12.7227H42.1429C42.419 12.7227 42.6429 12.4989 42.6429 12.2227V7.86747C42.6429 7.59133 42.419 7.36747 42.1429 7.36747H39.441M4.49965 7.36747V2.923C4.49965 2.37072 4.94736 1.92301 5.49965 1.92301H11.6407C12.1918 1.92301 12.639 2.36881 12.6407 2.91986L12.6547 7.36747M4.49965 7.36747H12.6547M12.6547 7.36747H31.3656M31.3656 7.36747V2.86865C31.3656 2.31637 31.8133 1.86865 32.3656 1.86865H38.441C38.9933 1.86865 39.441 2.31637 39.441 2.86865V7.36747M31.3656 7.36747H39.441" stroke="#CED3D8" stroke-width="2" stroke-linecap="round" stroke-linejoin="round"/>
<path d="M21.4194 24.6499L21.2271 25.813H24.4731L22.3745 29.7827L22.6011 27.7202L22.7231 26.6108H19.6548L21.6362 23.3364L21.4194 24.6499Z" stroke="#CED3D8" stroke-width="2"/>
<path d="M8.40957 5.97553V5.13152H7.56152V4.77614H8.40957V3.93213H8.77706V4.77614H9.62511V5.13152H8.77706V5.97553H8.40957Z" fill="#CED3D8"/>
<path d="M34.3887 5.22079V4.55151H36.4523V5.22079H34.3887Z" fill="#CED3D8"/>
</svg>
