<svg width="44" height="45" viewBox="0 0 44 45" fill="none" xmlns="http://www.w3.org/2000/svg">
<circle cx="22.3639" cy="22.5046" r="20.6359" stroke="#CED3D8" stroke-width="2"/>
<path d="M8.78961 27.4452C8.00994 25.3031 7.74832 23.0069 8.02613 20.7443C8.30394 18.4817 9.1133 16.3169 10.388 14.4271C11.6628 12.5372 13.3667 10.9759 15.3605 9.8707C17.3542 8.76553 19.5813 8.14792 21.8595 8.06837C24.1377 7.98882 26.4024 8.44958 28.4684 9.41298C30.5344 10.3764 32.3431 11.8151 33.7465 13.6114C35.15 15.4078 36.1084 17.5108 36.5433 19.7485C36.9783 21.9862 36.8775 24.2951 36.2491 26.4864" stroke="#CED3D8" stroke-width="2" stroke-linecap="round" stroke-linejoin="round" stroke-dasharray="5 5"/>
<path d="M27.5858 18.462L24.495 20.3285C23.4003 20.9721 22.2412 21.5514 21.1466 22.0663C20.8246 22.195 20.4383 22.3881 20.0519 22.5812C18.6997 23.2892 17.9914 24.7695 18.3133 26.2498C18.5709 27.4083 19.5368 28.3737 20.6958 28.6312C20.9534 28.6955 21.211 28.6955 21.4685 28.6955C22.6919 28.6955 23.7866 27.9875 24.3661 26.8934C24.495 26.5716 24.6881 26.1854 24.8813 25.7992C25.4608 24.7051 25.976 23.5465 26.6199 22.4524L28.4873 19.3631C28.6161 19.1057 28.5516 18.8482 28.3585 18.5908C28.1653 18.3333 27.8433 18.3333 27.5858 18.462ZM25.5252 21.7444C24.8169 22.903 24.2373 24.0615 23.7223 25.22C23.5934 25.6061 23.4003 25.928 23.2071 26.3141C22.8207 27.1508 21.9192 27.537 21.0178 27.3439C20.3095 27.2151 19.7299 26.6359 19.6012 25.928C19.408 25.0269 19.7944 24.1259 20.6314 23.7397C20.9534 23.5466 21.3398 23.4179 21.7261 23.2248C22.8852 22.6455 24.1086 22.0663 25.2033 21.4227L26.0404 20.9078L25.5252 21.7444Z" fill="#CED3D8"/>
</svg>
