<svg width="19" height="51" viewBox="0 0 19 51" fill="none" xmlns="http://www.w3.org/2000/svg">
<path d="M9.59326 37.0767C12.9819 37.0767 15.7523 39.7898 15.7524 43.1655C15.7524 46.5414 12.982 49.2554 9.59326 49.2554C6.20477 49.2551 3.43506 46.5413 3.43506 43.1655C3.43523 39.7899 6.20488 37.0769 9.59326 37.0767Z" stroke="#CED3D8" stroke-width="2" stroke-linecap="round" stroke-linejoin="round"/>
<path d="M9.59375 41.1479C10.7028 41.1482 11.6248 42.0386 11.625 43.1655C11.625 44.2926 10.7029 45.1839 9.59375 45.1841C8.48443 45.1841 7.56152 44.2927 7.56152 43.1655C7.56171 42.0385 8.48454 41.1479 9.59375 41.1479Z" stroke="#CED3D8" stroke-width="2"/>
<path d="M9.59375 1.85596C13.5523 1.85596 16.7851 5.02533 16.7852 8.96338C16.7852 12.9015 13.5523 16.0708 9.59375 16.0708C5.63536 16.0706 2.40332 12.9013 2.40332 8.96338C2.40336 5.02544 5.63539 1.85614 9.59375 1.85596Z" stroke="#CED3D8" stroke-width="2"/>
<path d="M9.59424 4.90942C11.8431 4.90959 13.6889 6.71171 13.689 8.96313C13.689 11.2146 11.8431 13.0167 9.59424 13.0168C7.34523 13.0168 5.49854 11.2147 5.49854 8.96313C5.49855 6.7116 7.34524 4.90942 9.59424 4.90942Z" stroke="#CED3D8" stroke-width="2"/>
<path d="M4.43457 30.0313L14.7525 27.6189M4.43457 33.2814L14.7525 30.8691M4.43457 36.222L14.7525 33.8097" stroke="#CED3D8" stroke-width="2" stroke-linecap="round" stroke-linejoin="round"/>
</svg>
