<svg width="48" height="32" viewBox="0 0 48 32" fill="none" xmlns="http://www.w3.org/2000/svg">
<mask id="path-1-outside-1_231_320" maskUnits="userSpaceOnUse" x="-0.827637" y="0.91333" width="49" height="31" fill="black">
<rect fill="white" x="-0.827637" y="0.91333" width="49" height="31"/>
<path d="M14.9894 24.6128C14.9894 27.3382 12.7801 29.5475 10.0548 29.5475C7.32943 29.5475 5.1201 27.3382 5.1201 24.6128C5.1201 21.8875 7.32943 19.6782 10.0548 19.6782C12.7801 19.6782 14.9894 21.8875 14.9894 24.6128Z"/>
<path d="M42.6236 24.6128C42.6236 27.3382 40.4143 29.5475 37.6889 29.5475C34.9636 29.5475 32.7543 27.3382 32.7543 24.6128C32.7543 21.8875 34.9636 19.6782 37.6889 19.6782C40.4143 19.6782 42.6236 21.8875 42.6236 24.6128Z"/>
</mask>
<path d="M11.0286 4.87413C11.0286 5.42642 11.4764 5.87413 12.0286 5.87413C12.5809 5.87413 13.0286 5.42642 13.0286 4.87413H11.0286ZM35.7151 4.87413L34.8206 5.32135V5.32135L35.7151 4.87413ZM38.6759 10.7957L37.7814 11.243C37.7929 11.2658 37.8052 11.2883 37.8184 11.3102L38.6759 10.7957ZM44.5975 24.6128V23.6128V24.6128ZM43.476 23.6128C42.9237 23.6128 42.476 24.0605 42.476 24.6128C42.476 25.1651 42.9237 25.6128 43.476 25.6128V23.6128ZM30.7804 25.6128C31.3327 25.6128 31.7804 25.1651 31.7804 24.6128C31.7804 24.0605 31.3327 23.6128 30.7804 23.6128V25.6128ZM16.9633 23.6128C16.411 23.6128 15.9633 24.0605 15.9633 24.6128C15.9633 25.1651 16.411 25.6128 16.9633 25.6128V23.6128ZM4.4494 25.5615C4.97334 25.3869 5.2565 24.8205 5.08185 24.2966C4.9072 23.7727 4.34088 23.4895 3.81694 23.6641L4.4494 25.5615ZM10.4267 10.1677C10.4267 9.61541 9.97901 9.16769 9.42672 9.16769C8.87444 9.16769 8.42672 9.61541 8.42672 10.1677H10.4267ZM0.976247 2.90662C0.434687 3.01493 0.0834707 3.54176 0.191783 4.08332C0.300095 4.62488 0.82692 4.97609 1.36848 4.86778L0.976247 2.90662ZM9.06784 5.86107L9.77495 5.15396L9.06784 5.86107ZM30.7804 12.7696L31.4875 13.4767C31.878 13.0862 31.878 12.453 31.4875 12.0625L30.7804 12.7696ZM28.5267 9.1017C28.1362 8.71118 27.503 8.71118 27.1125 9.1017C26.722 9.49222 26.722 10.1254 27.1125 10.5159L28.5267 9.1017ZM27.1125 15.0233C26.722 15.4138 26.722 16.047 27.1125 16.4375C27.503 16.828 28.1362 16.828 28.5267 16.4375L27.1125 15.0233ZM13.0286 4.87413C13.0286 4.52013 13.121 4.04168 13.4359 3.66682C13.7209 3.32744 14.3224 2.91333 15.6803 2.91333V0.91333C13.88 0.91333 12.6556 1.48616 11.9044 2.38044C11.183 3.23925 11.0286 4.2412 11.0286 4.87413H13.0286ZM15.6803 2.91333H32.7543V0.91333H15.6803V2.91333ZM32.7543 2.91333C33.0891 2.91333 33.3763 3.0513 33.7154 3.44977C34.0851 3.884 34.4152 4.51041 34.8206 5.32135L36.6095 4.42692C36.2254 3.65876 35.7929 2.80477 35.2384 2.15337C34.6535 1.46622 33.8549 0.91333 32.7543 0.91333V2.91333ZM34.8206 5.32135L37.7814 11.243L39.5703 10.3485L36.6095 4.42692L34.8206 5.32135ZM38.6759 10.7957C37.8184 11.3102 37.8188 11.311 37.8193 11.3117C37.8194 11.312 37.8199 11.3127 37.8202 11.3132C37.8208 11.3143 37.8214 11.3153 37.8221 11.3163C37.8233 11.3184 37.8247 11.3206 37.826 11.3228C37.8288 11.3272 37.8317 11.3319 37.8349 11.3369C37.8412 11.3467 37.8483 11.3575 37.8562 11.3691C37.872 11.3924 37.8912 11.4192 37.9142 11.4489C37.96 11.5084 38.0205 11.5793 38.0983 11.6571C38.2545 11.8133 38.4767 11.9935 38.7824 12.1634C39.398 12.5054 40.3107 12.7827 41.6367 12.7827V10.7827C40.594 10.7827 40.0263 10.5665 39.7537 10.4151C39.6153 10.3382 39.5413 10.2717 39.5125 10.2428C39.4977 10.2281 39.4935 10.2219 39.4977 10.2273C39.4998 10.2301 39.504 10.2357 39.51 10.2445C39.513 10.2489 39.5165 10.2542 39.5204 10.2603C39.5224 10.2633 39.5244 10.2666 39.5266 10.2701C39.5277 10.2718 39.5288 10.2736 39.5299 10.2755C39.5305 10.2764 39.531 10.2774 39.5316 10.2783C39.5319 10.2788 39.5323 10.2795 39.5325 10.2798C39.5329 10.2805 39.5334 10.2812 38.6759 10.7957ZM41.6367 12.7827C42.3379 12.7827 43.3862 12.9575 44.2217 13.4388C45.0075 13.8914 45.5714 14.5807 45.5714 15.7304H47.5714C47.5714 13.722 46.4903 12.4374 45.22 11.7057C43.9994 11.0026 42.5804 10.7827 41.6367 10.7827V12.7827ZM45.5714 15.7304V22.639H47.5714V15.7304H45.5714ZM45.5714 22.639C45.5714 22.7647 45.4842 23.0184 45.2306 23.2721C44.9769 23.5257 44.7232 23.6128 44.5975 23.6128L44.5975 25.6128C45.4139 25.6128 46.147 25.184 46.6448 24.6863C47.1426 24.1885 47.5714 23.4553 47.5714 22.639H45.5714ZM44.5975 23.6128H43.476V25.6128H44.5975V23.6128ZM30.7804 23.6128H16.9633V25.6128H30.7804V23.6128ZM3.81694 23.6641C3.49945 23.77 3.09499 23.769 2.81368 23.5927C2.59255 23.4542 2.17236 23.0304 2.17236 21.652H0.172363C0.172363 23.4318 0.739109 24.6529 1.75165 25.2875C2.70401 25.8843 3.77995 25.7847 4.4494 25.5615L3.81694 23.6641ZM2.17236 21.652V14.579H0.172363V21.652H2.17236ZM2.17236 14.579C2.17236 14.0485 2.29474 13.614 2.53371 13.3264C2.74361 13.0737 3.1692 12.7827 4.13317 12.7827V10.7827C2.72849 10.7827 1.67368 11.2318 0.995333 12.0483C0.34607 12.8299 0.172363 13.7935 0.172363 14.579H2.17236ZM6.33134 12.7827C6.77209 12.7827 7.71304 12.8093 8.53379 12.5656C8.95907 12.4393 9.4383 12.2181 9.81597 11.8098C10.2146 11.3788 10.4267 10.8182 10.4267 10.1677H8.42672C8.42672 10.3596 8.37525 10.422 8.34774 10.4517C8.29924 10.5042 8.18967 10.5814 7.96447 10.6483C7.48427 10.7909 6.87752 10.7827 6.33134 10.7827V12.7827ZM1.36848 4.86778C2.08169 4.72514 3.34259 4.63156 4.68877 4.84965C6.03477 5.06772 7.37399 5.58143 8.36073 6.56817L9.77495 5.15396C8.39305 3.77206 6.60697 3.13435 5.00862 2.8754C3.41044 2.61647 1.90793 2.72028 0.976247 2.90662L1.36848 4.86778ZM8.36073 6.56817C9.76533 7.97277 11.349 9.80635 13.138 11.212C14.975 12.6554 17.1609 13.7696 19.9241 13.7696V11.7696C17.7526 11.7696 15.9908 10.91 14.3736 9.63932C12.7083 8.33086 11.3312 6.71017 9.77495 5.15396L8.36073 6.56817ZM31.4875 12.0625L28.5267 9.1017L27.1125 10.5159L30.0733 13.4767L31.4875 12.0625ZM30.0733 12.0625L27.1125 15.0233L28.5267 16.4375L31.4875 13.4767L30.0733 12.0625ZM4.13317 12.7827H6.33134V10.7827H4.13317V12.7827ZM19.9241 13.7696H30.7804V11.7696H19.9241V13.7696ZM12.9894 24.6128C12.9894 26.2336 11.6755 27.5475 10.0548 27.5475V31.5475C13.8847 31.5475 16.9894 28.4427 16.9894 24.6128H12.9894ZM10.0548 27.5475C8.434 27.5475 7.1201 26.2336 7.1201 24.6128H3.1201C3.1201 28.4427 6.22486 31.5475 10.0548 31.5475V27.5475ZM7.1201 24.6128C7.1201 22.992 8.434 21.6782 10.0548 21.6782V17.6782C6.22486 17.6782 3.1201 20.7829 3.1201 24.6128H7.1201ZM10.0548 21.6782C11.6755 21.6782 12.9894 22.992 12.9894 24.6128H16.9894C16.9894 20.7829 13.8847 17.6782 10.0548 17.6782V21.6782ZM40.6236 24.6128C40.6236 26.2336 39.3097 27.5475 37.6889 27.5475V31.5475C41.5189 31.5475 44.6236 28.4427 44.6236 24.6128H40.6236ZM37.6889 27.5475C36.0682 27.5475 34.7543 26.2336 34.7543 24.6128H30.7543C30.7543 28.4427 33.859 31.5475 37.6889 31.5475V27.5475ZM34.7543 24.6128C34.7543 22.992 36.0682 21.6782 37.6889 21.6782V17.6782C33.859 17.6782 30.7543 20.7829 30.7543 24.6128H34.7543ZM37.6889 21.6782C39.3097 21.6782 40.6236 22.992 40.6236 24.6128H44.6236C44.6236 20.7829 41.5189 17.6782 37.6889 17.6782V21.6782Z" fill="#CED3D8" mask="url(#path-1-outside-1_231_320)"/>
</svg>
