<svg width="24" height="49" viewBox="0 0 24 49" fill="none" xmlns="http://www.w3.org/2000/svg">
<path d="M18.8029 43.4174C18.2506 43.4174 17.8029 43.8651 17.8029 44.4174C17.8029 44.9696 18.2506 45.4174 18.8029 45.4174V43.4174ZM4.73293 45.4174C5.28522 45.4174 5.73293 44.9696 5.73293 44.4174C5.73293 43.8651 5.28522 43.4174 4.73293 43.4174V45.4174ZM6.60892 41.6341C7.16121 41.6341 7.60892 41.1864 7.60892 40.6341C7.60892 40.0818 7.16121 39.6341 6.60892 39.6341V41.6341ZM15.0509 39.6341C14.4986 39.6341 14.0509 40.0818 14.0509 40.6341C14.0509 41.1864 14.4986 41.6341 15.0509 41.6341V39.6341ZM2.85694 48.2548H21.5549V46.2548H2.85694V48.2548ZM23.5549 46.2548V45.3554H21.5549V46.2548H23.5549ZM2.91895 46.3168V45.4174H0.918945V46.3168H2.91895ZM2.91895 45.4174H3.32594V43.4174H2.91895V45.4174ZM3.32594 45.4174H4.73293V43.4174H3.32594V45.4174ZM4.32594 44.4174V41.6341H2.32594V44.4174H4.32594ZM4.32594 41.6341H4.73293V39.6341H4.32594V41.6341ZM4.73293 41.6341H6.60892V39.6341H4.73293V41.6341ZM5.73293 40.6341V37.8509H3.73293V40.6341H5.73293ZM18.7409 37.8509V39.6883H20.7409V37.8509H18.7409ZM18.7409 39.6883V40.6341H20.7409V39.6883H18.7409ZM19.7409 39.6341H15.0509V41.6341H19.7409V39.6341ZM19.7409 41.6341H20.6169V39.6341H19.7409V41.6341ZM21.6169 43.4174H18.8029V45.4174H21.6169V43.4174ZM20.6169 41.6341V44.4174H22.6169V41.6341H20.6169ZM15.0509 37.8509H18.7409V35.8509H15.0509V37.8509ZM16.0509 36.8509V14.1514H14.0509V36.8509H16.0509ZM5.73293 37.8509H9.89191V35.8509H5.73293V37.8509ZM9.89191 37.8509H15.0509V35.8509H9.89191V37.8509ZM10.8919 36.8509V14.1514H8.89191V36.8509H10.8919ZM5.73293 37.8509V35.8509C4.62836 35.8509 3.73293 36.7463 3.73293 37.8509H5.73293ZM4.32594 41.6341H4.32594V39.6341C3.22137 39.6341 2.32594 40.5295 2.32594 41.6341H4.32594ZM20.6169 41.6341H22.6169C22.6169 40.5295 21.7214 39.6341 20.6169 39.6341V41.6341ZM2.91895 45.4174L2.91895 45.4174V43.4174C1.81437 43.4174 0.918945 44.3128 0.918945 45.4174H2.91895ZM2.85694 46.2548C2.89118 46.2548 2.91895 46.2826 2.91895 46.3168H0.918945C0.918945 47.3871 1.78662 48.2548 2.85694 48.2548V46.2548ZM23.5549 45.3554C23.5549 44.285 22.6872 43.4174 21.6169 43.4174V45.4174C21.5826 45.4174 21.5549 45.3896 21.5549 45.3554H23.5549ZM20.7409 37.8509C20.7409 36.7463 19.8454 35.8509 18.7409 35.8509V37.8509H20.7409ZM21.5549 48.2548C22.6594 48.2548 23.5549 47.3594 23.5549 46.2548H21.5549V48.2548Z" fill="#CED3D8"/>
<ellipse cx="12.2369" cy="8.47664" rx="6.56597" ry="6.62069" stroke="#CED3D8" stroke-width="2"/>
<path d="M16.364 8.04688C16.364 9.4226 15.5386 12.1741 12.2368 12.1741" stroke="#CED3D8" stroke-width="2" stroke-linecap="round"/>
</svg>
