<svg width="31" height="49" viewBox="0 0 31 49" fill="none" xmlns="http://www.w3.org/2000/svg">
<path d="M28.3933 40.3464L23.4587 45.2811V47.2549H7.6677V45.2811L2.73303 40.3464M28.3933 40.3464H29.3803V33.4379H27.4064M28.3933 40.3464H2.73303M27.4064 33.4379V24.5555H26.4195V7.77756M27.4064 33.4379H21.4848M26.4195 7.77756C27.0774 7.77756 28.3933 7.1854 28.3933 4.81676H21.4848C21.4848 3.82983 20.3005 1.85596 15.5632 1.85596C10.8259 1.85596 9.64157 3.82983 9.64157 4.81676H2.73303C2.73303 7.1854 4.04894 7.77756 4.7069 7.77756M26.4195 7.77756H21.4848M2.73303 40.3464H1.74609V33.4379H3.71996M3.71996 33.4379V24.5555H4.7069V7.77756M3.71996 33.4379H9.64157M4.7069 7.77756H9.64157M21.4848 33.4379V7.77756M21.4848 33.4379H15.5632M21.4848 7.77756H15.5632M15.5632 7.77756V33.4379M15.5632 7.77756H9.64157M15.5632 33.4379H9.64157M9.64157 33.4379V7.77756" stroke="#CED3D8" stroke-width="2" stroke-linecap="round" stroke-linejoin="round"/>
</svg>
