<svg width="48" height="36" viewBox="0 0 48 36" fill="none" xmlns="http://www.w3.org/2000/svg">
<path d="M43.2159 15.1418H39.4326" stroke="#CED3D8" stroke-width="2" stroke-linecap="round" stroke-linejoin="round"/>
<path d="M12.9487 11.3585V1.90039" stroke="#CED3D8" stroke-width="2" stroke-linecap="round" stroke-linejoin="round"/>
<path d="M7.27441 1.90039H18.6242" stroke="#CED3D8" stroke-width="2" stroke-linecap="round" stroke-linejoin="round"/>
<path d="M18.9491 11.3582H5.38237C4.37899 11.3582 3.41671 11.7567 2.70721 12.4662C1.99771 13.1757 1.59912 14.138 1.59912 15.1414V24.5996V30.2744C1.59912 31.2778 1.99771 32.2401 2.70721 32.9496C3.41671 33.6591 4.37899 34.0576 5.38237 34.0576H24.8018C26.1734 34.0578 27.5193 33.6851 28.6955 32.9794C29.8716 32.2737 30.8339 31.2615 31.4792 30.0512L39.4316 15.1414L29.1904 18.5539C28.8572 18.6656 28.4995 18.6823 28.1573 18.6021C27.8152 18.5219 27.5022 18.348 27.2533 18.0999L21.6239 12.4629C20.9139 11.7547 19.9519 11.3574 18.9491 11.3582Z" stroke="#CED3D8" stroke-width="2" stroke-linecap="round" stroke-linejoin="round"/>
<path d="M46.9985 26.4917V30.2749" stroke="#CED3D8" stroke-width="2" stroke-linecap="round" stroke-linejoin="round"/>
</svg>
