<svg width="50" height="48" viewBox="0 0 50 48" fill="none" xmlns="http://www.w3.org/2000/svg">
<path d="M24.2296 7.51042C24.6201 7.11989 25.2532 7.11989 25.6438 7.51042L41.4287 23.2953C41.8192 23.6859 41.8192 24.319 41.4287 24.7095L25.6431 40.4952C25.2525 40.8853 24.6193 40.8856 24.2289 40.4952L8.44395 24.7102C8.05353 24.3198 8.05375 23.6866 8.44395 23.296L24.2296 7.51042Z" stroke="#CED3D8" stroke-width="2" stroke-linecap="round" stroke-linejoin="round"/>
<path d="M22.6383 32.1372L22.7481 37.8641L24.9369 40.0529L41.0862 23.9036L38.8974 21.7149L31.7113 20.1459L33.2803 27.332L26.0942 25.763L27.6631 32.9491L22.6383 32.1372Z" fill="#CED3D8" stroke="#CED3D8" stroke-width="2" stroke-linecap="round" stroke-linejoin="round"/>
<path d="M14.627 21.9387L22.1589 29.4864" stroke="#CED3D8" stroke-width="2" stroke-linecap="round" stroke-dasharray="2 2"/>
<line x1="19.5666" y1="18.1223" x2="23.9891" y2="22.5448" stroke="#CED3D8" stroke-width="2" stroke-linecap="round" stroke-dasharray="2 2"/>
<line x1="24.2882" y1="13.6841" x2="28.7107" y2="18.1066" stroke="#CED3D8" stroke-width="2" stroke-linecap="round" stroke-dasharray="2 2"/>
</svg>
