<svg width="173" height="64" viewBox="0 0 173 64" fill="none" xmlns="http://www.w3.org/2000/svg">
<path d="M0.695348 25.3384H10.3422C12.5764 18.0984 18.401 12.388 25.7858 10.1977V0.740059C21.133 1.6974 16.8472 3.63522 13.1601 6.31577L6.77535 0.0583496L0 6.70081L6.38261 12.9582C3.64843 16.573 1.67184 20.7747 0.695348 25.3363V25.3384Z" fill="#EA010A"/>
<path d="M64.9978 31.9198C64.9978 28.6502 64.4934 25.4941 63.5598 22.5253H48.8567L64.9956 6.70291L58.2224 0.0583496L42.0835 15.8807V1.46806C39.0531 0.552799 35.8361 0.0583496 32.501 0.0583496V31.9198H64.9999H64.9978Z" fill="#EA010A"/>
<path d="M64.3024 38.5034H54.6555C52.4214 45.7434 46.5968 51.4537 39.2119 53.644V63.0996C43.8647 62.1423 48.1506 60.2044 51.8376 57.5239L58.2202 63.7813L64.9956 57.1388L58.613 50.8814C61.3472 47.2667 63.3237 43.0649 64.3002 38.5034H64.3024Z" fill="#EA010A"/>
<path d="M0 31.9199C0 35.1895 0.504342 38.3456 1.43791 41.3144H16.1411L0 57.1389L6.77535 63.7813L22.9143 47.959V62.3738C25.9446 63.289 29.1617 63.7835 32.4968 63.7835V31.922H0V31.9199Z" fill="#EA010A"/>
<path d="M89.1354 5.84868C88.8478 5.32898 88.4358 4.93132 87.8971 4.65779C87.3584 4.38216 86.7274 4.2454 85.9999 4.2454C84.7423 4.2454 83.7357 4.64938 82.9781 5.45943C82.2206 6.26949 81.8428 7.34886 81.8428 8.69966C81.8428 10.1409 82.2399 11.2645 83.0361 12.0745C83.8302 12.8846 84.9247 13.2886 86.3197 13.2886C87.2747 13.2886 88.0795 13.0508 88.7384 12.5753C89.3972 12.0998 89.878 11.4181 90.1806 10.526H85.2509V7.71917H93.7024V11.2603C93.4148 12.2113 92.9255 13.095 92.2366 13.9114C91.5477 14.7277 90.672 15.3884 89.6118 15.8934C88.5516 16.3983 87.3541 16.6508 86.0235 16.6508C84.4482 16.6508 83.0447 16.3142 81.8085 15.6367C80.5745 14.9613 79.613 14.0229 78.9241 12.8194C78.2352 11.6159 77.8896 10.244 77.8896 8.69966C77.8896 7.15529 78.233 5.77925 78.9241 4.56732C79.613 3.3575 80.5702 2.41489 81.7978 1.73949C83.0254 1.06409 84.4246 0.725342 85.9999 0.725342C87.9078 0.725342 89.5174 1.17771 90.8266 2.08455C92.1357 2.99139 93.0027 4.2454 93.4277 5.84868H89.1333H89.1354Z" fill="white"/>
<path d="M100.113 0.0583496V16.5393H96.2285V0.0583496H100.113Z" fill="white"/>
<path d="M105.446 15.9375C104.454 15.4178 103.673 14.6751 103.106 13.7094C102.538 12.7436 102.254 11.6158 102.254 10.324C102.254 9.03208 102.542 7.92325 103.117 6.94908C103.692 5.97701 104.48 5.23008 105.48 4.71038C106.48 4.19068 107.6 3.93188 108.843 3.93188C110.086 3.93188 111.206 4.19279 112.206 4.71038C113.206 5.23008 113.994 5.97701 114.569 6.94908C115.144 7.92115 115.432 9.04681 115.432 10.324C115.432 11.6011 115.14 12.7268 114.556 13.6988C113.972 14.6709 113.178 15.4178 112.172 15.9375C111.165 16.4572 110.041 16.716 108.798 16.716C107.555 16.716 106.439 16.4572 105.448 15.9375H105.446ZM110.693 12.6195C111.217 12.085 111.476 11.3213 111.476 10.3261C111.476 9.33085 111.223 8.56709 110.714 8.03266C110.208 7.49823 109.581 7.23102 108.841 7.23102C108.1 7.23102 107.454 7.49402 106.954 8.02214C106.454 8.55025 106.205 9.31823 106.205 10.3282C106.205 11.3381 106.452 12.0871 106.944 12.6216C107.435 13.156 108.053 13.4232 108.796 13.4232C109.538 13.4232 110.169 13.156 110.693 12.6216V12.6195Z" fill="white"/>
<path d="M123.001 4.46842C123.684 4.11284 124.463 3.93399 125.341 3.93399C126.386 3.93399 127.332 4.19489 128.18 4.71249C129.028 5.23218 129.697 5.97491 130.191 6.94067C130.683 7.90642 130.929 9.02787 130.929 10.3029C130.929 11.578 130.683 12.7057 130.191 13.6778C129.7 14.6499 129.028 15.401 128.18 15.927C127.332 16.4551 126.386 16.7181 125.341 16.7181C124.448 16.7181 123.667 16.5435 123.001 16.1942C122.334 15.845 121.813 15.3821 121.435 14.8014V16.5393H117.55V0.0583496H121.435V5.87181C121.798 5.2932 122.321 4.82611 123.001 4.46842ZM126.169 8.06422C125.63 7.52138 124.969 7.25206 124.182 7.25206C123.394 7.25206 122.755 7.52769 122.216 8.07685C121.677 8.626 121.409 9.37714 121.409 10.3261C121.409 11.275 121.677 12.0261 122.216 12.5753C122.753 13.1244 123.409 13.4001 124.182 13.4001C124.954 13.4001 125.613 13.1223 126.158 12.5648C126.704 12.0072 126.976 11.2539 126.976 10.305C126.976 9.3561 126.708 8.60917 126.169 8.06633V8.06422Z" fill="white"/>
<path d="M133.159 6.94069C133.65 5.97494 134.322 5.23432 135.17 4.71252C136.018 4.19282 136.964 3.93402 138.009 3.93402C138.902 3.93402 139.687 4.11286 140.361 4.46845C141.035 4.82403 141.555 5.29323 141.917 5.87184V4.11286H145.802V16.5414H141.917V14.7825C141.537 15.3611 141.012 15.8282 140.338 16.1859C139.664 16.5414 138.88 16.7203 137.986 16.7203C136.955 16.7203 136.018 16.4573 135.168 15.9292C134.32 15.4031 133.648 14.652 133.157 13.6799C132.665 12.7079 132.418 11.5822 132.418 10.3051C132.418 9.0279 132.665 7.90645 133.157 6.9428L133.159 6.94069ZM141.11 8.07688C140.572 7.52772 139.917 7.25209 139.144 7.25209C138.372 7.25209 137.717 7.52351 137.179 8.06425C136.64 8.60709 136.372 9.35192 136.372 10.303C136.372 11.254 136.64 12.0072 137.179 12.5627C137.715 13.1203 138.372 13.398 139.144 13.398C139.917 13.398 140.572 13.1224 141.11 12.5732C141.647 12.0241 141.917 11.275 141.917 10.324C141.917 9.37297 141.649 8.62393 141.11 8.07477V8.07688Z" fill="white"/>
<path d="M152.548 0.0583496V16.5393H148.663V0.0583496H152.548Z" fill="white"/>
<path d="M90.2256 24.4379V27.4887H85.9999V40.073H82.1154V27.4887H77.8896V24.4379H90.2256Z" fill="white"/>
<path d="M97.5565 28.101C98.239 27.7075 98.9944 27.5098 99.8271 27.5098V31.5411H98.7583C97.7883 31.5411 97.0629 31.7452 96.5779 32.1534C96.0928 32.5616 95.8503 33.279 95.8503 34.3016V40.0709H91.9658V27.6423H95.8503V29.7127C96.3053 29.031 96.8719 28.4924 97.5544 28.0989L97.5565 28.101Z" fill="white"/>
<path d="M101.746 30.4723C102.238 29.5065 102.909 28.7659 103.757 28.2441C104.605 27.7244 105.551 27.4656 106.597 27.4656C107.489 27.4656 108.275 27.6444 108.949 28C109.623 28.3556 110.142 28.8248 110.505 29.4034V27.6444H114.389V40.073H110.505V38.314C110.125 38.8926 109.599 39.3597 108.925 39.7174C108.251 40.073 107.468 40.2518 106.573 40.2518C105.543 40.2518 104.605 39.9888 103.755 39.4607C102.907 38.9347 102.236 38.1836 101.744 37.2115C101.253 36.2394 101.006 35.1138 101.006 33.8366C101.006 32.5595 101.253 31.438 101.744 30.4744L101.746 30.4723ZM109.698 31.6084C109.159 31.0593 108.504 30.7836 107.732 30.7836C106.959 30.7836 106.305 31.0551 105.766 31.5958C105.227 32.1387 104.959 32.8835 104.959 33.8345C104.959 34.7855 105.227 35.5388 105.766 36.0942C106.303 36.6518 106.959 36.9296 107.732 36.9296C108.504 36.9296 109.159 36.6539 109.698 36.1048C110.234 35.5556 110.505 34.8066 110.505 33.8555C110.505 32.9045 110.236 32.1555 109.698 31.6063V31.6084Z" fill="white"/>
<path d="M117.32 30.4723C117.812 29.5065 118.484 28.7659 119.331 28.2441C120.179 27.7244 121.125 27.4656 122.171 27.4656C123.003 27.4656 123.765 27.636 124.454 27.9769C125.143 28.3177 125.684 28.7785 126.079 29.3571V23.5878H129.963V40.0688H126.079V38.2867C125.716 38.88 125.197 39.3555 124.523 39.7111C123.849 40.0667 123.066 40.2455 122.171 40.2455C121.125 40.2455 120.179 39.9825 119.331 39.4544C118.484 38.9284 117.812 38.1772 117.32 37.2052C116.829 36.2331 116.582 35.1074 116.582 33.8303C116.582 32.5531 116.829 31.4317 117.32 30.468V30.4723ZM125.272 31.6084C124.733 31.0593 124.078 30.7836 123.306 30.7836C122.533 30.7836 121.879 31.0551 121.34 31.5958C120.801 32.1386 120.533 32.8835 120.533 33.8345C120.533 34.7855 120.801 35.5388 121.34 36.0942C121.877 36.6518 122.533 36.9296 123.306 36.9296C124.078 36.9296 124.733 36.6539 125.272 36.1048C125.808 35.5556 126.079 34.8066 126.079 33.8555C126.079 32.9045 125.81 32.1555 125.272 31.6063V31.6084Z" fill="white"/>
<path d="M133.132 25.7613C132.7 25.3679 132.483 24.8818 132.483 24.3032C132.483 23.7246 132.7 23.2154 133.132 22.822C133.563 22.4285 134.119 22.2328 134.801 22.2328C135.484 22.2328 136.016 22.4306 136.447 22.822C136.879 23.2154 137.095 23.7099 137.095 24.3032C137.095 24.8966 136.879 25.3679 136.447 25.7613C136.016 26.1548 135.467 26.3526 134.801 26.3526C134.136 26.3526 133.563 26.1569 133.132 25.7613ZM136.731 27.6444V40.073H132.846V27.6444H136.731Z" fill="white"/>
<path d="M150.893 28.9258C151.779 29.8684 152.221 31.1645 152.221 32.8119V40.073H148.358V33.3253C148.358 32.4942 148.139 31.8483 147.699 31.3875C147.259 30.9267 146.669 30.6974 145.926 30.6974C145.184 30.6974 144.594 30.9267 144.154 31.3875C143.714 31.8483 143.495 32.4942 143.495 33.3253V40.073H139.61V27.6444H143.495V29.2919C143.888 28.7427 144.418 28.3093 145.085 27.9895C145.75 27.6697 146.502 27.5098 147.334 27.5098C148.819 27.5098 150.004 27.9811 150.89 28.9237L150.893 28.9258Z" fill="white"/>
<path d="M162.22 28C162.894 28.3556 163.413 28.8248 163.776 29.4034V27.6445H167.66V40.0499C167.66 41.1924 167.429 42.2297 166.967 43.1575C166.506 44.0854 165.802 44.8239 164.855 45.3731C163.909 45.9222 162.731 46.1979 161.323 46.1979C159.445 46.1979 157.923 45.7644 156.756 44.8955C155.588 44.0265 154.923 42.8504 154.756 41.3649H158.595C158.715 41.8404 159.003 42.2149 159.458 42.4906C159.913 42.7641 160.473 42.903 161.138 42.903C161.941 42.903 162.581 42.6757 163.057 42.2233C163.533 41.771 163.774 41.0472 163.774 40.052V38.293C163.394 38.8716 162.872 39.3429 162.207 39.7069C161.54 40.0709 160.761 40.2519 159.868 40.2519C158.823 40.2519 157.876 39.9889 157.028 39.4607C156.181 38.9347 155.509 38.1836 155.018 37.2115C154.526 36.2395 154.279 35.1138 154.279 33.8366C154.279 32.5595 154.526 31.438 155.018 30.4744C155.509 29.5086 156.181 28.768 157.028 28.2462C157.876 27.7265 158.823 27.4677 159.868 27.4677C160.761 27.4677 161.546 27.6466 162.22 28.0021V28ZM162.969 31.6085C162.43 31.0593 161.776 30.7837 161.003 30.7837C160.231 30.7837 159.576 31.0551 159.037 31.5958C158.499 32.1387 158.23 32.8835 158.23 33.8345C158.23 34.7856 158.499 35.5388 159.037 36.0943C159.574 36.6518 160.231 36.9296 161.003 36.9296C161.776 36.9296 162.43 36.654 162.969 36.1048C163.506 35.5556 163.776 34.8066 163.776 33.8556C163.776 32.9046 163.508 32.1555 162.969 31.6064V31.6085Z" fill="white"/>
<path d="M80.9801 63.2027C80.0551 62.8324 79.3168 62.2832 78.7653 61.5552C78.2116 60.8272 77.9218 59.9519 77.8896 58.9273H82.0253C82.0853 59.5059 82.2892 59.9477 82.639 60.2528C82.9867 60.5579 83.4417 60.7094 84.0018 60.7094C84.562 60.7094 85.032 60.5789 85.3646 60.3201C85.6973 60.0613 85.8647 59.6995 85.8647 59.2408C85.8647 58.8557 85.7316 58.5359 85.4677 58.2834C85.2015 58.031 84.8775 57.8226 84.4912 57.6606C84.1049 57.4965 83.5554 57.3114 82.8451 57.1031C81.8149 56.7917 80.9736 56.4803 80.3234 56.1668C79.6731 55.8554 79.1108 55.3946 78.6429 54.7865C78.1729 54.1784 77.939 53.3831 77.939 52.4026C77.939 50.9466 78.4755 49.8084 79.5529 48.9836C80.6281 48.1588 82.0295 47.7464 83.755 47.7464C85.4805 47.7464 86.927 48.1588 88.0022 48.9836C89.0775 49.8084 89.6526 50.9551 89.7277 52.4237H85.5256C85.4956 51.9187 85.3067 51.521 84.9569 51.2328C84.6092 50.9424 84.1628 50.7994 83.6155 50.7994C83.1455 50.7994 82.7678 50.9214 82.4802 51.1676C82.1927 51.4116 82.0489 51.7651 82.0489 52.2259C82.0489 52.7309 82.2914 53.1243 82.7764 53.4063C83.2614 53.6882 84.019 53.9933 85.047 54.3194C86.0772 54.6603 86.9142 54.9885 87.558 55.2999C88.2018 55.6113 88.7577 56.0658 89.2277 56.6591C89.6977 57.2525 89.9316 58.0183 89.9316 58.9525C89.9316 59.8867 89.6998 60.6526 89.2384 61.3806C88.777 62.1086 88.1053 62.6872 87.2275 63.1185C86.3497 63.5498 85.311 63.7645 84.1156 63.7645C82.9202 63.7645 81.9051 63.5793 80.9801 63.2069V63.2027Z" fill="white"/>
<path d="M94.7714 63.0028C93.7799 62.4831 92.9987 61.7404 92.4321 60.7747C91.8634 59.8089 91.5801 58.6811 91.5801 57.3893C91.5801 56.0974 91.8677 54.9886 92.4428 54.0144C93.018 53.0423 93.8056 52.2954 94.8057 51.7757C95.8058 51.256 96.9261 50.9972 98.1687 50.9972C99.4113 50.9972 100.532 51.2581 101.532 51.7757C102.532 52.2954 103.319 53.0423 103.895 54.0144C104.47 54.9865 104.757 56.1121 104.757 57.3893C104.757 58.6664 104.465 59.7921 103.882 60.7641C103.298 61.7362 102.504 62.4831 101.497 63.0028C100.491 63.5225 99.3663 63.7813 98.1236 63.7813C96.881 63.7813 95.765 63.5225 94.7735 63.0028H94.7714ZM100.019 59.6848C100.542 59.1504 100.802 58.3866 100.802 57.3914C100.802 56.3962 100.549 55.6324 100.04 55.098C99.5337 54.5635 98.907 54.2963 98.1666 54.2963C97.4262 54.2963 96.7802 54.5593 96.2801 55.0874C95.7801 55.6156 95.5311 56.3835 95.5311 57.3935C95.5311 58.4034 95.7779 59.1525 96.2694 59.6869C96.7609 60.2213 97.3789 60.4885 98.1215 60.4885C98.8641 60.4885 99.495 60.2213 100.019 59.6869V59.6848Z" fill="white"/>
<path d="M110.79 47.1237V63.6046H106.905V47.1237H110.79Z" fill="white"/>
<path d="M126.199 51.176V63.6046H122.315V61.9129C121.92 62.4621 121.388 62.9039 120.714 63.2385C120.04 63.573 119.293 63.7393 118.475 63.7393C117.505 63.7393 116.651 63.5267 115.909 63.1038C115.166 62.6809 114.591 62.0686 114.183 61.267C113.773 60.4654 113.569 59.5228 113.569 58.4392V51.1781H117.43V57.9258C117.43 58.7569 117.649 59.4028 118.089 59.8636C118.529 60.3244 119.119 60.5537 119.862 60.5537C120.604 60.5537 121.216 60.3244 121.656 59.8636C122.096 59.4028 122.315 58.7569 122.315 57.9258V51.1781H126.199V51.176Z" fill="white"/>
<path d="M136.177 60.3749V63.6046H134.2C132.792 63.6046 131.693 63.268 130.906 62.5905C130.118 61.9151 129.725 60.8126 129.725 59.2829V54.3384H128.18V51.1761H129.725V48.1462H133.61V51.1761H136.155V54.3384H133.61V59.3271C133.61 59.6974 133.7 59.9646 133.882 60.1288C134.065 60.2929 134.367 60.3728 134.79 60.3728H136.177V60.3749Z" fill="white"/>
<path d="M138.774 49.295C138.342 48.9016 138.125 48.4155 138.125 47.8369C138.125 47.2583 138.342 46.7491 138.774 46.3557C139.205 45.9622 139.761 45.7665 140.443 45.7665C141.126 45.7665 141.658 45.9643 142.089 46.3557C142.521 46.7491 142.738 47.2436 142.738 47.8369C142.738 48.4303 142.521 48.9016 142.089 49.295C141.658 49.6885 141.109 49.8863 140.443 49.8863C139.778 49.8863 139.205 49.6906 138.774 49.295ZM142.375 51.176V63.6046H138.49V51.176H142.375Z" fill="white"/>
<path d="M147.62 63.0028C146.628 62.4831 145.847 61.7404 145.28 60.7747C144.712 59.8089 144.428 58.6811 144.428 57.3893C144.428 56.0974 144.716 54.9886 145.291 54.0144C145.866 53.0423 146.654 52.2954 147.654 51.7757C148.654 51.256 149.774 50.9972 151.017 50.9972C152.259 50.9972 153.38 51.2581 154.38 51.7757C155.38 52.2954 156.168 53.0423 156.743 54.0144C157.318 54.9865 157.605 56.1121 157.605 57.3893C157.605 58.6664 157.314 59.7921 156.73 60.7641C156.146 61.7362 155.352 62.4831 154.346 63.0028C153.339 63.5225 152.214 63.7813 150.972 63.7813C149.729 63.7813 148.613 63.5225 147.622 63.0028H147.62ZM152.867 59.6848C153.39 59.1504 153.65 58.3866 153.65 57.3914C153.65 56.3962 153.397 55.6324 152.888 55.098C152.382 54.5635 151.755 54.2963 151.015 54.2963C150.274 54.2963 149.628 54.5593 149.128 55.0874C148.628 55.6156 148.379 56.3835 148.379 57.3935C148.379 58.4034 148.626 59.1525 149.118 59.6869C149.609 60.2213 150.227 60.4885 150.97 60.4885C151.712 60.4885 152.343 60.2213 152.867 59.6869V59.6848Z" fill="white"/>
<path d="M171.002 52.4573C171.888 53.3999 172.33 54.696 172.33 56.3435V63.6045H168.467V56.8569C168.467 56.0258 168.248 55.3799 167.809 54.9191C167.369 54.4583 166.778 54.2289 166.036 54.2289C165.293 54.2289 164.703 54.4583 164.263 54.9191C163.823 55.3799 163.604 56.0258 163.604 56.8569V63.6045H159.72V51.176H163.604V52.8234C163.997 52.2743 164.527 51.8409 165.195 51.521C165.86 51.2012 166.611 51.0413 167.444 51.0413C168.929 51.0413 170.113 51.5126 171 52.4552L171.002 52.4573Z" fill="white"/>
</svg>
