<svg width="70" height="70" viewBox="0 0 70 70" fill="none" xmlns="http://www.w3.org/2000/svg">
<g clip-path="url(#clip0_193_142)">
<path d="M7.29677 0L0 7.29677L6.8738 14.1706C3.92921 18.1414 1.8005 22.757 0.748861 27.7679H11.1381C13.5442 19.8148 19.8171 13.5419 27.7703 11.1358V0.748861C22.7594 1.8005 18.1437 3.92921 14.1729 6.8738L7.29677 0Z" fill="#CED3D8"/>
<path d="M70.0002 62.7031L63.1264 55.8293C66.071 51.8585 68.1974 47.2428 69.2514 42.2319H58.8621C56.456 50.1851 50.1832 56.458 42.23 58.864V69.251C47.2409 68.1994 51.8565 66.0707 55.8274 63.1261L62.7012 69.9999L69.9979 62.7031H70.0002Z" fill="#CED3D8"/>
<path d="M11.1381 42.232H0.748861C1.8005 47.2429 3.92921 51.8586 6.8738 55.8294L0 62.7032L7.29677 70L14.1706 63.1262C18.1414 66.0708 22.757 68.1995 27.7679 69.2511V58.8618C19.8148 56.4558 13.5419 50.1829 11.1358 42.2297L11.1381 42.232Z" fill="#CED3D8"/>
<path d="M68.4539 24.68H52.6192L70.0001 7.29908L62.7034 0L45.3224 17.381V1.54857C42.0588 0.543155 38.5942 0 35.0024 0V35H70.0024C70.0024 31.4082 69.4593 27.9413 68.4539 24.68Z" fill="#EA010A"/>
</g>
<defs>
<clipPath id="clip0_193_142">
<rect width="70" height="70" fill="white"/>
</clipPath>
</defs>
</svg>
