<svg width="70" height="70" viewBox="0 0 70 70" fill="none" xmlns="http://www.w3.org/2000/svg">
<g clip-path="url(#clip0_193_149)">
<path d="M7.29677 0L0 7.29677L6.8738 14.1706C3.92921 18.1414 1.8005 22.757 0.748861 27.7679H11.1381C13.5442 19.8148 19.8171 13.5419 27.7703 11.1358V0.748861C22.7594 1.8005 18.1437 3.92921 14.1729 6.8738L7.29677 0Z" fill="#CED3D8"/>
<path d="M69.2514 42.2319H58.8621C56.456 50.1851 50.1832 56.458 42.23 58.864V69.251C47.2409 68.1994 51.8565 66.0707 55.8273 63.1261L62.7012 69.9999L69.9979 62.7031L63.1241 55.8293C66.0687 51.8585 68.1951 47.2428 69.2491 42.2319H69.2514Z" fill="#CED3D8"/>
<path d="M58.864 27.7703H69.251C68.1994 22.7594 66.0707 18.1437 63.1261 14.1729L69.9999 7.29908L62.7031 0L55.8293 6.8738C51.8585 3.92921 47.2428 1.8005 42.2319 0.748861V11.1381C50.1851 13.5442 56.458 19.8171 58.864 27.7703Z" fill="#CED3D8"/>
<path d="M11.1381 42.232H0.748861C1.8005 47.2429 3.92921 51.8586 6.8738 55.8294L0 62.7032L7.29677 70L14.1706 63.1262C18.1414 66.0708 22.757 68.1995 27.7679 69.2511V58.8618C19.8148 56.4558 13.5419 50.1829 11.1358 42.2297L11.1381 42.232Z" fill="#CED3D8"/>
<path d="M35 35H55.7416C55.7416 31.2419 54.7431 27.7194 52.9958 24.6801H45.3223V17.0066C42.2829 15.2592 38.7582 14.2607 35.0023 14.2607V35.0023L35 35Z" fill="#EA010A"/>
<path d="M34.9999 35.0001H14.2583C14.2583 38.7583 15.2568 42.2807 17.0041 45.3201H24.6776V52.9936C27.717 54.7409 31.2417 55.7394 34.9976 55.7394V34.9978L34.9999 35.0001Z" fill="#EA010A"/>
</g>
<defs>
<clipPath id="clip0_193_149">
<rect width="70" height="70" fill="white"/>
</clipPath>
</defs>
</svg>
