<svg width="70" height="70" viewBox="0 0 70 70" fill="none" xmlns="http://www.w3.org/2000/svg">
<g clip-path="url(#clip0_193_158)">
<path d="M7.29677 0L0 7.29677L6.8738 14.1706C3.92921 18.1414 1.8005 22.757 0.748861 27.7679H11.1381C13.5442 19.8148 19.8171 13.5419 27.7703 11.1358V0.748861C22.7594 1.8005 18.1437 3.92921 14.1729 6.8738L7.29677 0Z" fill="#CED3D8"/>
<path d="M69.2514 42.2319H58.8621C56.456 50.1851 50.1832 56.458 42.23 58.864V69.251C47.2409 68.1994 51.8565 66.0707 55.8273 63.1261L62.7012 69.9999L69.9979 62.7031L63.1241 55.8293C66.0687 51.8585 68.1974 47.2428 69.2491 42.2319H69.2514Z" fill="#CED3D8"/>
<path d="M58.864 27.7703H69.251C68.1994 22.7594 66.0707 18.1437 63.1261 14.1729L69.9999 7.29908L62.7031 0L55.8293 6.8738C51.8585 3.92921 47.2428 1.8005 42.2319 0.748861V11.1381C50.1851 13.5442 56.458 19.8171 58.864 27.7703Z" fill="#CED3D8"/>
<path d="M24.68 35H0C0 38.5918 0.543155 42.0587 1.54857 45.32H17.3833L0 62.7032L7.29677 70L24.6777 52.619V68.4537C27.9413 69.4592 31.4059 70.0023 34.9977 70.0023V35.0023H24.6777L24.68 35Z" fill="#EA010A"/>
</g>
<defs>
<clipPath id="clip0_193_158">
<rect width="70" height="70" fill="white"/>
</clipPath>
</defs>
</svg>
